<svg width="43" height="38" viewBox="0 0 43 38" fill="none" xmlns="http://www.w3.org/2000/svg">
<path d="M19.4445 5.05566H23.5557M35.8891 19.4447C34.5187 30.4077 31.0927 35.8892 25.6112 35.8892H17.3889C11.9074 35.8892 8.48146 30.4077 7.11108 19.4447" stroke="white" stroke-width="4.11114" stroke-linecap="round" stroke-linejoin="round"/>
<path d="M21.4999 31.778V35.8891M17.3887 17.389V17.4096M25.611 17.389V17.4096M19.4443 27.6669C19.4443 29.0372 20.1295 29.7224 21.4999 29.7224C23.5554 29.7224 23.5554 29.0379 23.5554 27.6669H19.4443ZM7.11087 3L19.4443 4.9939L6.62164 18.7416C6.26172 19.1469 5.75881 19.397 5.21843 19.4396C4.67805 19.4821 4.1422 19.3137 3.72329 18.9697C3.43847 18.7389 3.22438 18.4326 3.10551 18.0858C2.98663 17.739 2.96779 17.3657 3.05112 17.0087L7.11087 3ZM35.8889 3L23.5554 4.9939L36.3781 18.7416C37.114 19.5802 38.4111 19.683 39.2764 18.9697C39.5613 18.7389 39.7754 18.4326 39.8942 18.0858C40.0131 17.739 40.0319 17.3657 39.9486 17.0087L35.8889 3Z" stroke="white" stroke-width="4.11114" stroke-linecap="round" stroke-linejoin="round"/>
</svg>
